<mxfile host="Electron" modified="2023-12-14T13:45:10.438Z" agent="Mozilla/5.0 (Windows NT 10.0; Win64; x64) AppleWebKit/537.36 (KHTML, like Gecko) draw.io/22.1.2 Chrome/114.0.5735.289 Electron/25.9.4 Safari/537.36" etag="3XR0bSdi830s_YMGzY-r" version="22.1.2" type="device">
  <diagram id="C5RBs43oDa-KdzZeNtuy" name="Page-1">
    <mxGraphModel dx="627" dy="565" grid="1" gridSize="10" guides="1" tooltips="1" connect="1" arrows="1" fold="1" page="1" pageScale="1" pageWidth="827" pageHeight="1169" math="0" shadow="0">
      <root>
        <mxCell id="WIyWlLk6GJQsqaUBKTNV-0" />
        <mxCell id="WIyWlLk6GJQsqaUBKTNV-1" parent="WIyWlLk6GJQsqaUBKTNV-0" />
        <mxCell id="K5ozMfvpFNoP1B-4lyNL-5" value="" style="edgeStyle=orthogonalEdgeStyle;rounded=0;orthogonalLoop=1;jettySize=auto;html=1;" edge="1" parent="WIyWlLk6GJQsqaUBKTNV-1" source="K5ozMfvpFNoP1B-4lyNL-0" target="K5ozMfvpFNoP1B-4lyNL-1">
          <mxGeometry relative="1" as="geometry" />
        </mxCell>
        <mxCell id="K5ozMfvpFNoP1B-4lyNL-14" style="edgeStyle=orthogonalEdgeStyle;rounded=0;orthogonalLoop=1;jettySize=auto;html=1;entryX=0.25;entryY=0;entryDx=0;entryDy=0;" edge="1" parent="WIyWlLk6GJQsqaUBKTNV-1" source="K5ozMfvpFNoP1B-4lyNL-0" target="K5ozMfvpFNoP1B-4lyNL-3">
          <mxGeometry relative="1" as="geometry" />
        </mxCell>
        <mxCell id="K5ozMfvpFNoP1B-4lyNL-0" value="Authentication required?" style="rhombus;whiteSpace=wrap;html=1;" vertex="1" parent="WIyWlLk6GJQsqaUBKTNV-1">
          <mxGeometry x="60" y="190" width="120" height="80" as="geometry" />
        </mxCell>
        <mxCell id="K5ozMfvpFNoP1B-4lyNL-7" value="" style="edgeStyle=orthogonalEdgeStyle;rounded=0;orthogonalLoop=1;jettySize=auto;html=1;" edge="1" parent="WIyWlLk6GJQsqaUBKTNV-1" source="K5ozMfvpFNoP1B-4lyNL-1" target="K5ozMfvpFNoP1B-4lyNL-2">
          <mxGeometry relative="1" as="geometry" />
        </mxCell>
        <mxCell id="K5ozMfvpFNoP1B-4lyNL-1" value="&lt;div&gt;Credentials&amp;nbsp;&lt;br&gt;&lt;span style=&quot;background-color: initial;&quot;&gt;supplied?&lt;/span&gt;&lt;/div&gt;" style="rhombus;whiteSpace=wrap;html=1;" vertex="1" parent="WIyWlLk6GJQsqaUBKTNV-1">
          <mxGeometry x="230" y="190" width="120" height="80" as="geometry" />
        </mxCell>
        <mxCell id="K5ozMfvpFNoP1B-4lyNL-12" style="edgeStyle=orthogonalEdgeStyle;rounded=0;orthogonalLoop=1;jettySize=auto;html=1;entryX=0.75;entryY=0;entryDx=0;entryDy=0;" edge="1" parent="WIyWlLk6GJQsqaUBKTNV-1" source="K5ozMfvpFNoP1B-4lyNL-2" target="K5ozMfvpFNoP1B-4lyNL-3">
          <mxGeometry relative="1" as="geometry" />
        </mxCell>
        <mxCell id="K5ozMfvpFNoP1B-4lyNL-2" value="&lt;span&gt;Bearer &lt;br&gt;Token credentials &lt;br&gt;correct?&lt;/span&gt;" style="rhombus;whiteSpace=wrap;html=1;fontStyle=0" vertex="1" parent="WIyWlLk6GJQsqaUBKTNV-1">
          <mxGeometry x="230" y="310" width="120" height="80" as="geometry" />
        </mxCell>
        <mxCell id="K5ozMfvpFNoP1B-4lyNL-3" value="Authentication successful" style="rounded=1;whiteSpace=wrap;html=1;" vertex="1" parent="WIyWlLk6GJQsqaUBKTNV-1">
          <mxGeometry x="90" y="430" width="120" height="60" as="geometry" />
        </mxCell>
        <mxCell id="K5ozMfvpFNoP1B-4lyNL-4" value="return&lt;br&gt;SOAP:Fault env:Sender&lt;br&gt;ter:NotAuthorized error" style="rounded=1;whiteSpace=wrap;html=1;" vertex="1" parent="WIyWlLk6GJQsqaUBKTNV-1">
          <mxGeometry x="240" y="430" width="196" height="60" as="geometry" />
        </mxCell>
        <mxCell id="K5ozMfvpFNoP1B-4lyNL-11" style="edgeStyle=orthogonalEdgeStyle;rounded=0;orthogonalLoop=1;jettySize=auto;html=1;entryX=0.255;entryY=0;entryDx=0;entryDy=0;entryPerimeter=0;" edge="1" parent="WIyWlLk6GJQsqaUBKTNV-1" source="K5ozMfvpFNoP1B-4lyNL-2" target="K5ozMfvpFNoP1B-4lyNL-4">
          <mxGeometry relative="1" as="geometry" />
        </mxCell>
        <mxCell id="K5ozMfvpFNoP1B-4lyNL-16" style="edgeStyle=orthogonalEdgeStyle;rounded=0;orthogonalLoop=1;jettySize=auto;html=1;entryX=0.807;entryY=-0.012;entryDx=0;entryDy=0;entryPerimeter=0;exitX=1;exitY=0.5;exitDx=0;exitDy=0;" edge="1" parent="WIyWlLk6GJQsqaUBKTNV-1" source="K5ozMfvpFNoP1B-4lyNL-1" target="K5ozMfvpFNoP1B-4lyNL-4">
          <mxGeometry relative="1" as="geometry" />
        </mxCell>
        <mxCell id="K5ozMfvpFNoP1B-4lyNL-19" value="No" style="text;html=1;strokeColor=none;fillColor=none;align=center;verticalAlign=middle;whiteSpace=wrap;rounded=0;" vertex="1" parent="WIyWlLk6GJQsqaUBKTNV-1">
          <mxGeometry x="330" y="230" width="60" height="30" as="geometry" />
        </mxCell>
        <mxCell id="K5ozMfvpFNoP1B-4lyNL-21" value="No" style="text;html=1;strokeColor=none;fillColor=none;align=center;verticalAlign=middle;whiteSpace=wrap;rounded=0;" vertex="1" parent="WIyWlLk6GJQsqaUBKTNV-1">
          <mxGeometry x="70" y="270" width="60" height="30" as="geometry" />
        </mxCell>
        <mxCell id="K5ozMfvpFNoP1B-4lyNL-22" value="Yes" style="text;html=1;strokeColor=none;fillColor=none;align=center;verticalAlign=middle;whiteSpace=wrap;rounded=0;" vertex="1" parent="WIyWlLk6GJQsqaUBKTNV-1">
          <mxGeometry x="160" y="230" width="60" height="30" as="geometry" />
        </mxCell>
        <mxCell id="K5ozMfvpFNoP1B-4lyNL-23" value="Yes" style="text;html=1;strokeColor=none;fillColor=none;align=center;verticalAlign=middle;whiteSpace=wrap;rounded=0;" vertex="1" parent="WIyWlLk6GJQsqaUBKTNV-1">
          <mxGeometry x="240" y="260" width="60" height="30" as="geometry" />
        </mxCell>
        <mxCell id="K5ozMfvpFNoP1B-4lyNL-24" value="No" style="text;html=1;strokeColor=none;fillColor=none;align=center;verticalAlign=middle;whiteSpace=wrap;rounded=0;" vertex="1" parent="WIyWlLk6GJQsqaUBKTNV-1">
          <mxGeometry x="280" y="390" width="60" height="30" as="geometry" />
        </mxCell>
        <mxCell id="K5ozMfvpFNoP1B-4lyNL-26" value="Yes" style="text;html=1;strokeColor=none;fillColor=none;align=center;verticalAlign=middle;whiteSpace=wrap;rounded=0;" vertex="1" parent="WIyWlLk6GJQsqaUBKTNV-1">
          <mxGeometry x="190" y="360" width="60" height="30" as="geometry" />
        </mxCell>
      </root>
    </mxGraphModel>
  </diagram>
</mxfile>
